<svg fill="none" height="513" viewBox="0 0 513 513" width="513" xmlns="http://www.w3.org/2000/svg"><g fill="#3f3f3f"><path d="m233.471 509.122c-4.709-.063-8.362-1.434-10.961-4.112-2.642-2.679-3.93-6.428-3.864-11.246l.263-19.121 9.654.129-.229 16.691c-.041 2.985.683 5.361 2.171 7.129 1.487 1.769 3.7 2.672 6.637 2.712 3.413.045 6.128-1.027 8.145-3.218 2.017-2.147 3.053-5.204 3.107-9.169l.191-13.877 9.654.129-.229 16.691c-.041 2.985.682 5.361 2.17 7.129s3.722 2.673 6.703 2.712c3.369.045 6.063-1.027 8.08-3.218 2.017-2.147 3.053-5.204 3.107-9.169l.191-13.877 9.654.129-.46 33.51-8.877-.118.108-7.866c-3.146 5.714-8.304 8.524-15.475 8.428-3.585-.048-6.576-.877-8.974-2.487-2.441-1.568-4.138-3.808-5.092-6.72-1.466 2.923-3.548 5.133-6.248 6.632-2.699 1.499-5.841 2.225-9.426 2.177z"/><path d="m189.03 504.403-2.435 8.293-9.834-2.812 2.435-8.293zm10.403-36.578-9.452 32.189-9.273-2.652 9.451-32.19z"/><path d="m164.609 460.446c2.174 4.71 1.931 9.481-.732 14.313-2.662 4.832-6.577 7.609-11.744 8.33-5.188.759-10.894-.532-17.118-3.873-6.186-3.32-10.367-7.335-12.541-12.046-2.196-4.673-1.962-9.425.7-14.257s6.587-7.628 11.775-8.386c5.168-.721 10.844.578 17.03 3.899 6.224 3.34 10.434 7.347 12.63 12.02zm-15.936 14.598c3.054-.545 5.314-2.147 6.779-4.807 1.465-2.659 1.6-5.402.403-8.229-1.234-2.846-3.692-5.257-7.374-7.233-3.681-1.976-7.049-2.692-10.103-2.147-3.092.525-5.37 2.117-6.836 4.776-1.465 2.66-1.58 5.413-.346 8.26 1.197 2.826 3.636 5.227 7.317 7.203s7.068 2.701 10.16 2.177z"/><path d="m84.1323 395.631 9.0384 8.898 1.0796 19.672 4.4962 4.426 9.4265-9.328 6.836 6.729-33.6801 33.329-6.836-6.73 18.9452-18.747-4.6338-4.562-19.3374-.789-8.4419-8.311 24.8834 2.094z"/><path d="m38.7647 350.63.9067-.496 17.2264 30.648c4.2486-3.691 4.403-9.042.4631-16.052-2.6615-4.735-5.6201-7.406-8.8758-8.012l-4.2181-8.296c3.4032-.449 6.7385.431 10.0058 2.64 3.2295 2.23 6.1855 5.731 8.8679 10.504 3.5627 6.338 5.0969 12.056 4.6028 17.154-.515 5.061-3.3791 9.018-8.5923 11.872-5.1376 2.814-10.0261 3.125-14.6655.936-4.6603-2.227-8.6985-6.379-12.1144-12.457-7.1462-12.714-5.0151-22.194 6.3934-28.441zm-.6136 25.277c3.7303 6.637 8.2499 9.184 13.5587 7.643l-12.574-22.371c-2.0862 1.386-3.2183 3.371-3.3961 5.955-.2366 2.567.5672 5.492 2.4114 8.773z"/><path d="m6.48752 312.33c-.49125-1.856-.75075-3.596-.77848-5.22l8.15066-2.101c.3861 2.809.7702 4.936 1.1523 6.38 1.048 3.96 2.9043 6.588 5.5691 7.885 2.6647 1.296 6.3796 1.33 11.1446.101l11.7243-3.022 2.4399 9.22-32.8533 8.469-2.2597-8.539 8.4014-2.166c-3.2952-.473-6.0162-1.644-8.1632-3.515-2.19962-1.9-3.70883-4.398-4.52758-7.492z"/><path d="m.367309 258.421c.027124-13.133 5.138251-19.722 15.333391-19.767l19.3103-.085.0398 8.826-7.1927.032c5.3293 3.473 8.0125 9.303 8.0494 17.489.0227 5.031-.8889 8.852-2.7347 11.461-1.8893 2.566-4.3459 3.856-7.3698 3.87-3.3696.014-5.8606-1.531-7.4731-4.637-1.6558-3.148-2.6924-7.876-3.1096-14.185l-.9022-13.235-.5832.003c-2.0736.009-3.7113.869-4.9132 2.58-1.24529 1.668-1.86023 4.208-1.84483 7.619.02655 5.884 1.59752 9.373 4.71293 10.468l.0404 8.954c-2.72313-.329-4.95302-1.449-6.68967-3.36-1.73664-1.911-2.95663-4.209-3.65995-6.892-.703317-2.683-1.041075-5.73-1.013271-9.141zm28.919091 3.966c-.0194-4.307-.8342-7.757-2.4444-10.351-1.6533-2.593-3.6247-3.885-5.9143-3.875l-1.1664.005.8966 12.02c.2322 3.581.7194 6.244 1.4617 7.989.6991 1.745 1.7398 2.614 3.1222 2.608 1.2528-.005 2.2432-.713 2.9713-2.124.728-1.41 1.0858-3.501 1.0733-6.272z"/><path d="m20.8914 155.752c1.5442-4.391 4.0136-7.381 7.4081-8.972 3.4086-1.63 7.4188-1.655 12.0304-.075l18.3038 6.271-3.1664 9.003-15.9775-5.474c-2.8568-.979-5.3697-1.05-7.5388-.214-2.1691.837-3.7354 2.624-4.6987 5.363-1.1192 3.183-.9436 6.064.5269 8.644 1.4297 2.566 4.0422 4.499 7.8377 5.799l13.284 4.552-3.1664 9.002-15.9775-5.474c-2.8568-.979-5.3697-1.05-7.5388-.213-2.1691.836-3.7425 2.644-4.72 5.423-1.105 3.142-.9223 6.003.5482 8.583 1.4297 2.566 4.0422 4.499 7.8376 5.8l13.2841 4.551-3.1664 9.003-32.07751-10.991 2.91134-8.277 7.52967 2.58c-4.50365-4.748-5.5796-10.465-3.2279-17.152 1.1759-3.343 2.9155-5.884 5.2189-7.622 2.2767-1.792 4.9656-2.677 8.0666-2.652-2.3485-2.294-3.8181-4.942-4.4089-7.942-.5909-3.001-.2984-6.173.8775-9.516z"/><path d="m39.4325 115.61-7.2069-4.894 5.8034-8.325 7.207 4.894zm31.8942 21.271-27.9736-18.997 5.4729-7.85 27.9736 18.996z"/><path d="m120.635 82.8203-9.271 8.6618-19.9533.5006-4.6118 4.309 9.1768 9.5683-7.0118 6.551-32.7872-34.185 7.0118-6.5513 18.4428 19.2291 4.753-4.4408 1.3543-19.0554 8.6589-8.0902-2.8346 24.4896z"/><path d="m138.143 32.6111c11.856-5.9629 20.127-4.4764 24.815 4.4593l8.879 16.9249-7.941 4.0584-3.307-6.3042c-.702 6.2649-4.736 11.2795-12.102 15.0438-4.527 2.3135-8.387 3.2541-11.581 2.8219-3.176-.4896-5.459-2.0596-6.85-4.7101-1.549-2.9533-1.291-5.8461.774-8.6782 2.084-2.8897 5.876-5.9557 11.375-9.1981l11.524-6.826-.269-.5111c-.953-1.8175-2.475-2.8642-4.566-3.1401-2.072-.3334-4.643.2841-7.712 1.8526-5.294 2.7056-7.724 5.6763-7.291 8.9122l-8.056 4.1173c-.945-2.5423-.951-5.0118-.02-7.4086.932-2.3968 2.447-4.5157 4.546-6.3567 2.099-1.8409 4.693-3.5267 7.782-5.0573zm9.607 27.2127c3.874-1.9802 6.614-4.2687 8.219-6.8656 1.585-2.6348 1.852-4.9555.799-6.9623l-.536-1.0223-10.431 6.2672c-3.123 1.8362-5.303 3.478-6.538 4.9256-1.255 1.4096-1.564 2.7203-.929 3.9319.576 1.098 1.666 1.6454 3.27 1.6421 1.603-.0033 3.652-.6422 6.146-1.9166z"/><path d="m279.012 4.31603c4.708.0584 8.363 1.42562 10.964 4.10167 2.645 2.6766 3.936 6.4237 3.875 11.2415l-.243 19.1218-9.655-.1198.213-16.6916c.038-2.9844-.688-5.36-2.178-7.1268s-3.703-2.6684-6.64-2.7048c-3.413-.0424-6.127 1.0327-8.142 3.225-2.015 2.1498-3.047 5.2072-3.098 9.1722l-.177 13.8777-9.654-.1198.212-16.6915c.038-2.9845-.687-5.3601-2.177-7.1269s-3.725-2.6686-6.705-2.7056c-3.37-.0418-6.062 1.0335-8.077 3.2258-2.015 2.1498-3.048 5.2072-3.098 9.1722l-.177 13.8777-9.654-.1198.426-33.51101 8.877.11011-.1 7.8661c3.14-5.71763 8.296-8.532 15.467-8.44306 3.585.04447 6.577.87045 8.976 2.47795 2.443 1.5654 4.142 3.80381 5.099 6.71531 1.463-2.9241 3.543-5.13698 6.241-6.63862s5.839-2.23022 9.425-2.18575z"/><path d="m323.457 8.99167 2.426-8.295381 9.837 2.803271-2.427 8.29534zm-10.367 36.58833 9.42-32.1983 9.276 2.6436-9.42 32.1983z"/><path d="m347.922 52.9255c-2.179-4.7082-1.94-9.4796.717-14.3143 2.658-4.8346 6.57-7.6151 11.736-8.3412 5.187-.7636 10.895.5218 17.122 3.8564 6.189 3.3142 10.374 7.3254 12.553 12.0336 2.2 4.6707 1.972 9.4234-.686 14.258-2.657 4.8347-6.58 7.6338-11.767 8.3975-5.166.7261-10.844-.5679-17.034-3.8821-6.227-3.3346-10.441-7.3372-12.641-12.0079zm15.921-14.6137c-3.053.5479-5.311 2.1523-6.774 4.8133-1.463 2.6609-1.594 5.404-.395 8.2291 1.237 2.8455 3.698 5.2544 7.381 7.2266 3.683 1.9723 7.052 2.6845 10.105 2.1366 3.092-.5275 5.369-2.1218 6.831-4.7827 1.463-2.661 1.576-5.4142.338-8.2597-1.199-2.8251-3.641-5.2238-7.324-7.1961-3.683-1.9722-7.07-2.6946-10.162-2.1671z"/><path d="m428.463 117.662-9.047-8.889-1.1-19.6708-4.5-4.422-9.418 9.3375-6.843-6.7232 33.648-33.361 6.843 6.7232-18.927 18.7656 4.638 4.5573 19.338.7706 8.451 8.3024-24.886-2.0697z"/><path d="m473.875 162.619-.906.497-17.257-30.631c-4.245 3.695-4.394 9.046-.447 16.052 2.666 4.732 5.627 7.4 8.884 8.004l4.226 8.291c-3.403.453-6.739-.424-10.008-2.63-3.232-2.227-6.192-5.725-8.879-10.495-3.569-6.335-5.109-12.052-4.62-17.15.51-5.061 3.37-9.021 8.581-11.881 5.135-2.818 10.023-3.134 14.664-.949 4.663 2.222 8.705 6.37 12.127 12.444 7.159 12.708 5.037 22.19-6.365 28.448zm.588-25.277c-3.736-6.633-8.259-9.177-13.566-7.63l12.596 22.359c2.085-1.388 3.215-3.374 3.391-5.959.234-2.567-.573-5.491-2.421-8.77z"/><path d="m506.19 200.887c.493 1.856.755 3.596.784 5.219l-8.149 2.109c-.388-2.808-.775-4.934-1.158-6.378-1.052-3.959-2.911-6.586-5.577-7.879-2.666-1.294-6.381-1.324-11.145-.091l-11.721 3.033-2.449-9.217 32.845-8.501 2.268 8.537-8.399 2.174c3.295.469 6.017 1.638 8.166 3.507 2.202 1.898 3.713 4.394 4.535 7.487z"/><path d="m512.364 254.791c-.014 13.133-5.118 19.727-15.313 19.781l-19.31.104-.049-8.826 7.193-.039c-5.333-3.467-8.022-9.295-8.067-17.481-.028-5.031.88-8.852 2.723-11.463 1.887-2.569 4.342-3.861 7.366-3.877 3.37-.018 5.862 1.525 7.478 4.629 1.659 3.146 2.7 7.873 3.124 14.182l.915 13.234.583-.003c2.074-.011 3.711-.873 4.911-2.585 1.243-1.669 1.856-4.21 1.837-7.621-.032-5.884-1.607-9.372-4.723-10.463l-.05-8.954c2.724.326 4.955 1.444 6.693 3.353 1.739 1.91 2.961 4.206 3.667 6.888.706 2.683 1.047 5.73 1.022 9.141zm-28.923-3.938c.024 4.306.842 7.756 2.455 10.348 1.656 2.592 3.629 3.882 5.918 3.87l1.167-.007-.909-12.019c-.236-3.58-.726-6.243-1.47-7.987-.7-1.744-1.742-2.613-3.124-2.605-1.253.006-2.243.715-2.969 2.126-.727 1.411-1.083 3.502-1.068 6.274z"/><path d="m491.943 357.48c-1.54 4.392-4.007 7.385-7.399 8.978-3.407 1.634-7.418 1.663-12.031.088l-18.31-6.254 3.158-9.006 15.982 5.459c2.858.976 5.371 1.045 7.54.206 2.168-.838 3.732-2.628 4.693-5.368 1.116-3.183.937-6.064-.536-8.642-1.432-2.565-4.046-4.496-7.843-5.792l-13.289-4.539 3.158-9.006 15.983 5.459c2.858.976 5.371 1.045 7.539.206 2.168-.838 3.74-2.648 4.714-5.428 1.102-3.143.917-6.004-.556-8.582-1.433-2.565-4.047-4.496-7.844-5.792l-13.288-4.539 3.157-9.006 32.088 10.96-2.903 8.28-7.532-2.572c4.509 4.743 5.59 10.459 3.245 17.148-1.172 3.344-2.91 5.886-5.211 7.627-2.275 1.795-4.963 2.682-8.064 2.66 2.351 2.292 3.823 4.938 4.417 7.938s.304 6.173-.868 9.517z"/><path d="m473.442 397.639 7.211 4.887-5.795 8.331-7.212-4.887zm-31.916-21.24 27.993 18.97-5.465 7.856-27.993-18.969z"/><path d="m392.272 430.508 9.262-8.671 19.953-.52 4.607-4.313-9.186-9.559 7.005-6.558 32.822 34.153-7.006 6.558-18.462-19.211-4.748 4.445-1.335 19.057-8.651 8.098 2.81-24.492z"/><path d="m374.813 480.734c-11.849 5.975-20.122 4.496-24.819-4.435l-8.896-16.916 7.937-4.066 3.314 6.301c.696-6.266 4.725-11.284 12.087-15.056 4.524-2.318 8.384-3.262 11.578-2.833 3.177.486 5.461 2.054 6.854 4.703 1.553 2.952 1.298 5.845-.765 8.679-2.081 2.892-5.869 5.962-11.365 9.209l-11.517 6.838.268.51c.955 1.817 2.479 2.862 4.57 3.136 2.072.332 4.642-.288 7.709-1.86 5.292-2.711 7.719-5.684 7.283-8.919l8.052-4.125c.947 2.541.956 5.011.027 7.408-.929 2.398-2.443 4.518-4.54 6.361s-4.689 3.532-7.777 5.065zm-9.633-27.203c-3.873 1.984-6.61 4.275-8.213 6.873-1.582 2.637-1.846 4.958-.791 6.963l.537 1.022 10.424-6.277c3.122-1.839 5.299-3.483 6.533-4.932 1.254-1.411 1.562-2.722.925-3.933-.577-1.097-1.667-1.644-3.271-1.639s-3.652.646-6.144 1.923z"/></g></svg>